<svg
  width="275.293"
  height="346.064"
  viewBox="0 0 275.293 345.928"
  preserveAspectRatio="xMidYMid"
  xmlns="http://www.w3.org/2000/svg"
>
  <path
    d="M 39.629,2.3145796 C 17.675,2.3145796 0,19.98958 0,41.94358 v 128.734 c 0,21.954 17.675,39.627 39.63,39.627 21.953,0 39.628,-17.673 39.628,-39.627 V 41.94358 C 79.258,19.98958 61.583,2.3145796 39.629,2.3145796 Z M 39.049,20.48258 a 17.673,17.673 0 0 1 17.674,17.672 17.673,17.673 0 0 1 -17.674,17.674 17.673,17.673 0 0 1 -17.672,-17.674 17.673,17.673 0 0 1 17.672,-17.672 z m 1.047,135.236 a 17.673,17.673 0 0 1 17.672,17.674 17.673,17.673 0 0 1 -17.672,17.674 17.673,17.673 0 0 1 -17.674,-17.674 17.673,17.673 0 0 1 17.675,-17.673 z"
    id="chain-1"
  />
  <path
    d="m 40.0507,137.68676 c -21.954,0 -39.629,17.675 -39.629,39.629 v 128.734 c 0,21.954 17.675,39.627 39.63,39.627 21.953,0 39.628,-17.673 39.628,-39.627 v -128.734 c 0,-21.954 -17.675,-39.629 -39.629,-39.629 z m -0.58,18.168 a 17.673,17.673 0 0 1 17.674,17.672 17.673,17.673 0 0 1 -17.674,17.674 17.673,17.673 0 0 1 -17.672,-17.674 17.673,17.673 0 0 1 17.672,-17.672 z m 1.047,135.236 a 17.673,17.673 0 0 1 17.672,17.674 17.673,17.673 0 0 1 -17.672,17.674 17.673,17.673 0 0 1 -17.674,-17.674 17.673,17.673 0 0 1 17.675,-17.673 z"
    id="chain-2"
  />
  <path
    d="m 162.99024,187.28117 c -15.52382,-15.52382 -40.52005,-15.52382 -56.04388,1e-5 l -91.02869,91.02868 c -15.52382,15.52382 -15.5224,40.51864 0.002,56.04317 15.52312,15.5231 40.51793,15.52453 56.04176,7.1e-4 l 91.02867,-91.02869 c 15.52383,-15.52383 15.52383,-40.52005 10e-6,-56.04388 z m -13.25684,12.4366 a 17.673,17.673 0 0 1 0.001,24.9934 17.673,17.673 0 0 1 -24.99481,0 17.673,17.673 0 0 1 10e-4,-24.9934 17.673,17.673 0 0 1 24.99199,0 z m -94.88595,96.36664 a 17.673,17.673 0 0 1 -0.001,24.99339 17.673,17.673 0 0 1 -24.9934,10e-4 17.673,17.673 0 0 1 0,-24.99481 17.673,17.673 0 0 1 24.99482,9.9e-4 z"
    id="chain-3"
  />
  <path
    d="m 260.07762,333.25269 c 15.52382,-15.52381 15.52382,-40.52005 -1e-5,-56.04387 l -91.02868,-91.02869 c -15.52382,-15.52382 -40.51864,-15.5224 -56.04317,0.002 -15.5231,15.52311 -15.52453,40.51792 -7.1e-4,56.04175 l 91.02869,91.02867 c 15.52383,15.52383 40.52005,15.52382 56.04388,1e-5 z m -12.4366,-13.25684 a 17.673,17.673 0 0 1 -24.9934,10e-4 17.673,17.673 0 0 1 0,-24.99481 17.673,17.673 0 0 1 24.9934,10e-4 17.673,17.673 0 0 1 0,24.99198 z m -96.36664,-94.88594 a 17.673,17.673 0 0 1 -24.99339,-0.001 17.673,17.673 0 0 1 -0.001,-24.99341 17.673,17.673 0 0 1 24.99481,0 17.673,17.673 0 0 1 -9.9e-4,24.99483 z"
    id="chain-4"
  />
  <path
    d="m 235.66368,343.58233 c 21.95398,0 39.62899,-17.67501 39.62898,-39.62901 l 10e-6,-128.73401 c 0,-21.95399 -17.67501,-39.62699 -39.62992,-39.62709 -21.95299,2e-5 -39.62799,17.673 -39.628,39.62701 l 1e-5,128.73399 c 0,21.95401 17.675,39.629 39.629,39.62901 z m 0.58,-18.16801 a 17.673,17.673 0 0 1 -17.67372,-17.6723 17.673,17.673 0 0 1 17.674,-17.674 17.673,17.673 0 0 1 17.67229,17.67371 17.673,17.673 0 0 1 -17.67199,17.672 z m -1.04703,-135.23599 a 17.673,17.673 0 0 1 -17.67229,-17.67371 17.673,17.673 0 0 1 17.67231,-17.67372 17.673,17.673 0 0 1 17.674,17.674 17.673,17.673 0 0 1 -17.67471,17.67332 z"
    id="chain-5"
  />
  <path
    d="m 234.98986,207.92199 c 21.95398,0 39.62899,-17.67501 39.62898,-39.62901 l 1e-5,-128.734011 c 0,-21.95399 -17.67501,-39.62699047 -39.62992,-39.62709047 -21.95299,2e-5 -39.62799,17.67300047 -39.628,39.62701047 l 2e-5,128.733991 c -1e-5,21.95401 17.67499,39.629 39.62899,39.62901 z m 0.58,-18.16801 a 17.673,17.673 0 0 1 -17.67372,-17.6723 17.673,17.673 0 0 1 17.674,-17.674 17.673,17.673 0 0 1 17.67229,17.67371 17.673,17.673 0 0 1 -17.67199,17.672 z M 234.52283,54.517989 a 17.673,17.673 0 0 1 -17.67229,-17.67371 17.673,17.673 0 0 1 17.67231,-17.67372 17.673,17.673 0 0 1 17.674,17.674 17.673,17.673 0 0 1 -17.67471,17.67332 z"
    id="chain-6"
  />
</svg>
