<?xml version="1.0" encoding="utf-8"?>
<!-- Generator: Adobe Illustrator 25.2.3, SVG Export Plug-In . SVG Version: 6.00 Build 0)  -->
<svg version="1.1" id="Warstwa_1" xmlns="http://www.w3.org/2000/svg" xmlns:xlink="http://www.w3.org/1999/xlink" x="0px" y="0px"
	 viewBox="0 0 150 42.5" style="width:150px; height: 42px;" xml:space="preserve">
<style type="text/css">
	.st0{fill:none;}
	.st1{fill:#757679;}
</style>
<rect x="-11.7" y="-3.8" class="st0" width="172.6" height="51.8"/>
<path class="st1" d="M1,23.5h1.5v1.7c0.5-0.7,1-1.2,1.5-1.5c0.5-0.4,1-0.5,1.6-0.5c0.4,0,0.9,0.1,1.3,0.4l-0.8,1.3
	c-0.3-0.1-0.6-0.2-0.8-0.2c-0.5,0-1,0.2-1.5,0.6s-0.9,1-1.1,1.9c-0.2,0.7-0.3,2-0.3,4.1v4H1V23.5z"/>
<path class="st1" d="M20,23.5v11.8h-1.5v-2c-0.6,0.8-1.3,1.3-2.1,1.8c-0.8,0.4-1.6,0.6-2.6,0.6c-1.6,0-3.1-0.6-4.3-1.8
	s-1.8-2.7-1.8-4.4c0-1.7,0.6-3.2,1.8-4.4c1.2-1.2,2.6-1.8,4.3-1.8c1,0,1.8,0.2,2.6,0.6c0.8,0.4,1.5,1,2.1,1.8v-2.2L20,23.5L20,23.5z
	 M14,24.7c-0.9,0-1.6,0.2-2.3,0.6c-0.7,0.4-1.3,1-1.7,1.8c-0.4,0.7-0.6,1.5-0.6,2.4c0,0.9,0.2,1.6,0.6,2.4c0.4,0.7,1,1.3,1.7,1.8
	c0.7,0.4,1.5,0.6,2.3,0.6c0.9,0,1.6-0.2,2.4-0.6c0.7-0.4,1.3-1,1.7-1.7c0.4-0.7,0.6-1.5,0.6-2.4c0-1.3-0.4-2.5-1.3-3.4
	C16.4,25.1,15.3,24.7,14,24.7z"/>
<path class="st1" d="M22.4,23.5H24l4,8.6l3.9-8.6h1.6l-5.4,11.8h-0.3L22.4,23.5z"/>
<path class="st1" d="M45.7,31.4l1.3,0.7c-0.4,0.9-0.9,1.5-1.5,2c-0.5,0.5-1.2,0.9-1.9,1.2c-0.7,0.2-1.5,0.4-2.3,0.4
	c-1.9,0-3.4-0.6-4.5-1.9s-1.6-2.7-1.6-4.3c0-1.5,0.5-2.9,1.4-4c1.2-1.5,2.7-2.3,4.7-2.3c2,0,3.6,0.8,4.8,2.3c0.9,1.1,1.3,2.4,1.3,4
	H36.8c0,1.3,0.5,2.5,1.3,3.3c0.9,0.9,1.9,1.3,3.2,1.3c0.6,0,1.2-0.1,1.8-0.3c0.5-0.2,1-0.5,1.5-0.9C44.8,32.7,45.3,32.2,45.7,31.4z
	 M45.7,28.2c-0.2-0.8-0.5-1.5-0.9-1.9c-0.4-0.5-0.9-0.9-1.5-1.2c-0.6-0.3-1.3-0.4-2-0.4c-1.2,0-2.1,0.4-3,1.1
	c-0.6,0.5-1.1,1.3-1.4,2.4C36.9,28.2,45.7,28.2,45.7,28.2z"/>
<path class="st1" d="M50.2,23.5h1.5v2.1c0.6-0.8,1.3-1.4,2-1.8c0.7-0.4,1.5-0.6,2.4-0.6c0.9,0,1.6,0.2,2.4,0.7
	c0.7,0.4,1.2,1,1.5,1.8c0.3,0.7,0.5,1.9,0.5,3.5v6.1h-1.5v-5.6c0-1.3-0.1-2.3-0.2-2.7c-0.2-0.8-0.5-1.3-1-1.8
	c-0.5-0.4-1.2-0.6-1.9-0.6c-0.9,0-1.8,0.3-2.5,0.9s-1.2,1.3-1.5,2.3c-0.1,0.6-0.2,1.6-0.2,3.2v4.3h-1.5L50.2,23.5L50.2,23.5z"/>
<path d="M82.2,23.5h1.5v2c0.5-0.7,1.1-1.3,1.6-1.6c0.8-0.5,1.6-0.7,2.4-0.7c0.5,0,1.1,0.1,1.6,0.4c0.5,0.2,0.9,0.5,1.3,0.9
	c0.3,0.4,0.6,0.9,0.9,1.6c0.5-0.9,1.2-1.6,1.9-2.1c0.7-0.5,1.6-0.7,2.4-0.7c0.8,0,1.5,0.2,2.1,0.6c0.6,0.4,1.1,1,1.4,1.7
	c0.3,0.7,0.4,1.8,0.4,3.3v6.5h-1.5v-6.5c0-1.3-0.1-2.1-0.2-2.6c-0.2-0.5-0.5-0.9-0.9-1.2s-1-0.4-1.6-0.4c-0.7,0-1.4,0.2-2,0.7
	c-0.6,0.4-1,1-1.3,1.8c-0.3,0.7-0.4,1.9-0.4,3.7v4.6h-1.5v-6c0-1.4-0.1-2.4-0.2-2.9c-0.2-0.5-0.5-0.9-0.9-1.2s-1-0.5-1.6-0.5
	c-0.7,0-1.3,0.2-1.9,0.6c-0.6,0.4-1,1-1.3,1.7c-0.3,0.7-0.4,1.8-0.4,3.3v5h-1.5V23.5H82.2z"/>
<path d="M113,31.4l1.3,0.7c-0.4,0.9-0.9,1.5-1.5,2c-0.5,0.5-1.2,0.9-1.8,1.2s-1.5,0.4-2.3,0.4c-1.9,0-3.4-0.6-4.5-1.9
	s-1.6-2.7-1.6-4.3c0-1.5,0.5-2.9,1.4-4c1.2-1.5,2.7-2.3,4.7-2.3c2,0,3.6,0.8,4.8,2.3c0.9,1.1,1.3,2.4,1.3,4h-10.6
	c0,1.3,0.5,2.5,1.3,3.3s1.9,1.3,3.2,1.3c0.6,0,1.2-0.1,1.8-0.3c0.5-0.2,1-0.5,1.5-0.9C112.1,32.7,112.5,32.2,113,31.4z M113,28.2
	c-0.2-0.8-0.5-1.5-0.9-1.9c-0.4-0.5-0.9-0.9-1.5-1.2s-1.3-0.4-2-0.4c-1.2,0-2.1,0.4-3,1.1c-0.6,0.5-1.1,1.3-1.4,2.4
	C104.2,28.2,113,28.2,113,28.2z"/>
<path d="M129.3,19v16.4h-1.5v-2c-0.6,0.8-1.3,1.3-2.1,1.8c-0.8,0.4-1.6,0.6-2.6,0.6c-1.6,0-3.1-0.6-4.3-1.8
	c-1.2-1.2-1.8-2.7-1.8-4.4c0-1.7,0.6-3.2,1.8-4.4c1.2-1.2,2.6-1.8,4.3-1.8c1,0,1.8,0.2,2.6,0.6c0.8,0.4,1.5,1,2.1,1.8V19
	C127.8,19,129.3,19,129.3,19z M123.3,24.7c-0.9,0-1.6,0.2-2.3,0.6c-0.7,0.4-1.3,1-1.7,1.8c-0.4,0.7-0.6,1.5-0.6,2.4
	c0,0.9,0.2,1.6,0.7,2.4c0.4,0.7,1,1.3,1.7,1.8c0.7,0.4,1.5,0.6,2.3,0.6c0.9,0,1.6-0.2,2.4-0.6c0.7-0.4,1.3-1,1.7-1.7
	c0.4-0.7,0.6-1.5,0.6-2.4c0-1.3-0.4-2.5-1.3-3.4C125.6,25.1,124.5,24.7,123.3,24.7z"/>
<path d="M133.2,18.7c0.4,0,0.7,0.1,0.9,0.4c0.2,0.2,0.4,0.5,0.4,0.9s-0.1,0.6-0.4,0.9c-0.2,0.2-0.5,0.4-0.9,0.4s-0.6-0.1-0.9-0.4
	c-0.2-0.2-0.4-0.5-0.4-0.9c0-0.4,0.1-0.7,0.4-0.9C132.6,18.8,132.9,18.7,133.2,18.7z M132.5,23.5h1.5v11.8h-1.5V23.5z"/>
<path d="M149,23.5v11.8h-1.5v-2c-0.6,0.8-1.3,1.3-2.1,1.8c-0.8,0.4-1.6,0.6-2.6,0.6c-1.6,0-3.1-0.6-4.3-1.8
	c-1.2-1.2-1.8-2.7-1.8-4.4c0-1.7,0.6-3.2,1.8-4.4c1.2-1.2,2.6-1.8,4.3-1.8c1,0,1.8,0.2,2.6,0.6s1.5,1,2.1,1.8v-2.2L149,23.5
	L149,23.5z M142.9,24.7c-0.9,0-1.6,0.2-2.3,0.6c-0.7,0.4-1.3,1-1.7,1.8c-0.4,0.7-0.6,1.5-0.6,2.4c0,0.9,0.2,1.6,0.6,2.4
	c0.4,0.7,1,1.3,1.7,1.8c0.7,0.4,1.5,0.6,2.3,0.6s1.6-0.2,2.4-0.6c0.7-0.4,1.3-1,1.7-1.7c0.4-0.7,0.6-1.5,0.6-2.4
	c0-1.3-0.4-2.5-1.3-3.4C145.3,25.1,144.2,24.7,142.9,24.7z"/>
<g>
	<path d="M69.9,40.7c2.1-2.4,5.2-15.2,7.4-16.1c0.7-0.1,1.2,0.9,1.7,2c0,0,0.5-1.2-0.4-3.1c0,0,0.7-1.6,0-2.7c0,0,3-2.6,5-5.7
		c2.1-3.1,7.7-9.8,8.5-10.5c0.8-0.7-0.8,0.7-0.8,0.7s-4.3,4-5.8,4.8c-1.6,0.8-6.6,2.9-9.4,8c0,0-0.4,1.5-2.4,1
		c-1.9-0.5-1.8-1.6-2.1-2.5c-0.4-0.9-0.4-3.5-4-6.1c-3.6-2.5-5.1-6.9-5.4-8c0,0,0.7,2.1-0.3,1.3c0,0,2.3,8.6,5.7,10.7
		c0,0-0.1,2.3-1.3,2.3c0,0,3,5.5,1.6,6.8c0,0-4.7,1.3-4.1,2.4C64.5,27.3,78.7,21.8,69.9,40.7z"/>
	<path d="M82.3,15.4c1.8-2,4.5-2.9,5.5-3.8c1-0.9,4.1-5.2,5.3-3c1.2,2.3-1.3,1.4-2.9,2.4c-1.7,1-4.9,3-5.9,3.3
		C83.3,14.6,80.5,17.4,82.3,15.4z"/>
	<path d="M71.6,31.8c0,0-1.6,5.4-3.7,5.6c-2,0.2-4.1,1.9-3.3,3.5c0.8,1.6,1.4,2.1,3.3-1.3C70,36,70.7,36.7,71.6,31.8z"/>
	<path d="M66.9,13.1c0,0-1.9-6-4.7-6.6c-2.9-0.5-5.2-2.7-3.6-4.4C60.3,0.5,61.3,0,63,4.1C64.7,8.2,65.5,10,66.9,13.1z"/>
	<path d="M64.9,21.2c-0.9-0.9-2-1.2-2.6-0.7s-0.4,1.5,0.4,2.3c0.9,0.9,2,1.2,2.6,0.7C66,23.2,65.8,22.1,64.9,21.2z"/>
</g>
</svg>
