<?xml version="1.0" encoding="utf-8"?>
<!-- Generator: Adobe Illustrator 25.2.3, SVG Export Plug-In . SVG Version: 6.00 Build 0)  -->
<svg version="1.1" id="Warstwa_1" xmlns="http://www.w3.org/2000/svg" xmlns:xlink="http://www.w3.org/1999/xlink" x="0px" y="0px"
	 viewBox="0 0 150 42.5" style="width:42px; height: 42px;" xml:space="preserve">
<style type="text/css">
	.st0{fill:none;}
	.st1{fill:#757679;}
</style>
<g>
	<path d="M69.9,40.7c2.1-2.4,5.2-15.2,7.4-16.1c0.7-0.1,1.2,0.9,1.7,2c0,0,0.5-1.2-0.4-3.1c0,0,0.7-1.6,0-2.7c0,0,3-2.6,5-5.7
		c2.1-3.1,7.7-9.8,8.5-10.5c0.8-0.7-0.8,0.7-0.8,0.7s-4.3,4-5.8,4.8c-1.6,0.8-6.6,2.9-9.4,8c0,0-0.4,1.5-2.4,1
		c-1.9-0.5-1.8-1.6-2.1-2.5c-0.4-0.9-0.4-3.5-4-6.1c-3.6-2.5-5.1-6.9-5.4-8c0,0,0.7,2.1-0.3,1.3c0,0,2.3,8.6,5.7,10.7
		c0,0-0.1,2.3-1.3,2.3c0,0,3,5.5,1.6,6.8c0,0-4.7,1.3-4.1,2.4C64.5,27.3,78.7,21.8,69.9,40.7z"/>
	<path d="M82.3,15.4c1.8-2,4.5-2.9,5.5-3.8c1-0.9,4.1-5.2,5.3-3c1.2,2.3-1.3,1.4-2.9,2.4c-1.7,1-4.9,3-5.9,3.3
		C83.3,14.6,80.5,17.4,82.3,15.4z"/>
	<path d="M71.6,31.8c0,0-1.6,5.4-3.7,5.6c-2,0.2-4.1,1.9-3.3,3.5c0.8,1.6,1.4,2.1,3.3-1.3C70,36,70.7,36.7,71.6,31.8z"/>
	<path d="M66.9,13.1c0,0-1.9-6-4.7-6.6c-2.9-0.5-5.2-2.7-3.6-4.4C60.3,0.5,61.3,0,63,4.1C64.7,8.2,65.5,10,66.9,13.1z"/>
	<path d="M64.9,21.2c-0.9-0.9-2-1.2-2.6-0.7s-0.4,1.5,0.4,2.3c0.9,0.9,2,1.2,2.6,0.7C66,23.2,65.8,22.1,64.9,21.2z"/>
</g>
</svg>
